<svg id="Camada_1" data-name="Camada 1" xmlns="http://www.w3.org/2000/svg" viewBox="0 0 1000 1000"><defs><style>.cls-1{fill:#44a1a0;}</style></defs><title>LogoFinanceiraVIP</title><path class="cls-1" d="M447.12,657a216.88,216.88,0,0,1-51.93-6.12,150.21,150.21,0,0,1-45.39-19.21,112.79,112.79,0,0,1-34-33.78L346.08,566c6.47,11.82,23,22.07,34.77,28.79,11,6.31,23.67,11.09,35.82,12.79a171.67,171.67,0,0,0,29.22,2.06c8.16,0,18.91-3.12,25.59-6.25,6-2.8,12.12-7,15.78-10.95s4.62-10.52,4.62-17q0-11-6.12-17.52t-18.58-11a231.51,231.51,0,0,0-31.46-8.24l-27.44-5.91A227.47,227.47,0,0,1,376.61,524a99.27,99.27,0,0,1-27.45-15A66.87,66.87,0,0,1,330,485.32q-7-14.15-7-34.42,0-27.86,14.15-46.65T375.34,376q24.07-9.51,52.78-9.51,39.69,0,70.73,14.36t48.77,39.69l-41,46a94.11,94.11,0,0,0-36.74-33.78,101.5,101.5,0,0,0-47.29-11.83,55.11,55.11,0,0,0-19.42,3.17A30,30,0,0,0,390.12,433a21,21,0,0,0-4.64,13.72q0,15.63,12.87,22.8t34.84,12.25l32.09,7.6a232.57,232.57,0,0,1,36.1,11.4,111.25,111.25,0,0,1,28.08,16.47,65.06,65.06,0,0,1,18.16,23.64Q554,554.78,554,573.78q0,27-13.93,45.6t-38,28.08Q477.95,657,447.12,657Zm11.41,38H429V327.61h29.56Z"/><path class="cls-1" d="M447.84,848.93H411.1L305.54,566h40.54l63.34,177.34,21.11,73-.85.4,415.59-594,21.8,21.81Z"/><polyline class="cls-1" points="36.75 834.15 36.75 834.15 305.54 566.03 320.84 607.03 60.92 863.19"/><polygon class="cls-1" points="767.96 174.29 937.12 297.54 921.39 136.81 767.96 174.29"/><path class="cls-1" d="M90.75,704.22l44.07-43.51c-25.65-95.28-16.1-188.25,45.49-277.8,45.12-60.27,102.66-106.26,182-127.38,66.21-17.8,132.19-16.25,197.91,9.66,47.56,16.94,92.36,44.74,131.93,91L710,378.27l35-45.78q-53.85-75.83-160.73-119.4s-111-45-233.3-12.37-189.8,116.44-189.8,116.44-79.68,86.51-91.7,199S90.75,704.22,90.75,704.22Z"/><path class="cls-1" d="M626.19,855.09H591.12v-267h35.07Z"/><path class="cls-1" d="M727.82,855.09H692.75v-267h35.07ZM800,765H704.31V733.93h90.07a96.44,96.44,0,0,0,30.69-4.79,48.86,48.86,0,0,0,23.71-16.93q9.36-12.16,9.37-33.68,0-24.31-9.37-37.07a47.53,47.53,0,0,0-23.71-17.53,96.44,96.44,0,0,0-30.69-4.79H704.31V588.05H800q26.31,0,47.63,9.77a77.34,77.34,0,0,1,33.88,29.69q12.56,19.93,12.55,51,0,28.69-12.55,47.62a80.75,80.75,0,0,1-33.88,28.9Q826.26,765,800,765Z"/></svg>