<svg id="Camada_1" data-name="Camada 1" xmlns="http://www.w3.org/2000/svg" viewBox="0 0 1000 1000"><defs><style>.cls-1{fill:#020817;}.cls-2{fill:#44a1a0;}</style></defs><title>LogoFinanceiraVIP</title><rect class="cls-1" width="1000" height="1000"/><path class="cls-2" d="M447.12,658.72a216.88,216.88,0,0,1-51.93-6.12,150,150,0,0,1-45.39-19.21,112.56,112.56,0,0,1-34-33.78l30.28-31.82c6.47,11.82,23,22.07,34.77,28.79,11,6.31,23.67,11.09,35.82,12.8a172.7,172.7,0,0,0,29.22,2.06c8.16,0,18.91-3.13,25.59-6.26,6-2.79,12.12-7,15.78-10.94s4.62-10.53,4.62-17q0-11-6.12-17.52t-18.58-11a230.19,230.19,0,0,0-31.46-8.23l-27.44-5.92a227.45,227.45,0,0,1-31.67-8.86,99.79,99.79,0,0,1-27.45-15A66.9,66.9,0,0,1,330,487.08q-7-14.15-7-34.41,0-27.87,14.15-46.66t38.21-28.29q24.07-9.5,52.78-9.5,39.69,0,70.73,14.36t48.77,39.69l-41,46a94.26,94.26,0,0,0-36.74-33.78,101.49,101.49,0,0,0-47.29-11.82,54.89,54.89,0,0,0-19.42,3.17,29.94,29.94,0,0,0-13.09,8.86,21,21,0,0,0-4.64,13.73q0,15.62,12.87,22.8t34.84,12.24l32.09,7.6a233.65,233.65,0,0,1,36.1,11.4A111.25,111.25,0,0,1,529.46,519a65.09,65.09,0,0,1,18.16,23.65Q554,556.54,554,575.54q0,27-13.93,45.6t-38,28.09Q477.95,658.72,447.12,658.72Zm11.41,38H429V329.37h29.56Z"/><path class="cls-2" d="M447.84,850.7H411.1L305.54,567.79h40.54l63.34,177.34,21.11,73-.85.4,415.59-594,21.8,21.8Z"/><polyline class="cls-2" points="36.75 835.92 36.75 835.92 305.54 567.79 320.84 608.8 60.92 864.95"/><polygon class="cls-2" points="767.96 176.05 937.12 299.3 921.39 138.58 767.96 176.05"/><path class="cls-2" d="M90.75,706l44.07-43.5c-25.65-95.29-16.1-188.26,45.49-277.8,45.12-60.28,102.66-106.27,182-127.39C428.5,239.49,494.48,241,560.2,267c47.56,16.93,92.36,44.74,131.93,91L710,380l35-45.77q-53.85-75.83-160.73-119.41s-111-45-233.3-12.37-189.8,116.44-189.8,116.44-79.68,86.51-91.7,199S90.75,706,90.75,706Z"/><path class="cls-2" d="M628.64,856.85H593.57v-267h35.07Z"/><path class="cls-2" d="M730.27,856.85H695.2v-267h35.07Zm72.14-90.07H706.76V735.69h90.07a96.44,96.44,0,0,0,30.69-4.78A48.82,48.82,0,0,0,851.23,714q9.36-12.15,9.37-33.68,0-24.3-9.37-37.07a47.64,47.64,0,0,0-23.71-17.53,96.44,96.44,0,0,0-30.69-4.78H706.76V589.82h95.65q26.31,0,47.63,9.76a77.33,77.33,0,0,1,33.87,29.7q12.55,19.92,12.56,51,0,28.69-12.56,47.63A80.7,80.7,0,0,1,850,756.81Q828.71,766.79,802.41,766.78Z"/></svg>