<svg id="Camada_1" data-name="Camada 1" xmlns="http://www.w3.org/2000/svg" viewBox="0 0 1000 2085.33"><defs><style>.cls-1{fill:#44a1a0;}.cls-2{fill:#4b5358;}.cls-3,.cls-4{fill:#efefef;}.cls-4{stroke:#000;stroke-miterlimit:10;stroke-width:0.25px;}</style></defs><title>LogoFinanceiraVIP</title><circle class="cls-1" cx="172.67" cy="295.25" r="127.11"/><circle class="cls-2" cx="172.67" cy="584.07" r="127.11"/><circle class="cls-3" cx="172.67" cy="872.89" r="127.11"/><path class="cls-1" d="M352.12,311.49H338.94l-17.13-48.24H333.9l8.28,26,3.53,15.41,3.6-15.41,8.28-26h11.66Z"/><path class="cls-1" d="M385.88,312.21a19.29,19.29,0,0,1-9.68-2.31,15.39,15.39,0,0,1-6.23-6.48,22.37,22.37,0,0,1,0-19.18,15.89,15.89,0,0,1,6-6.45,17.36,17.36,0,0,1,9-2.3,18,18,0,0,1,9.36,2.23,14.19,14.19,0,0,1,5.62,6,19,19,0,0,1,1.87,8.42c0,.77,0,1.57-.11,2.41a16.53,16.53,0,0,1-.25,1.91H375.16v-5.9h19.15L392.65,292c0-2.79-.62-4.91-1.87-6.38s-3.14-2.19-5.69-2.19a7.37,7.37,0,0,0-5.65,2.19c-1.37,1.47-2.05,3.66-2.05,6.59v2.67a10.53,10.53,0,0,0,1.08,5.07,6.82,6.82,0,0,0,3.06,2.95,10.06,10.06,0,0,0,4.5,1,12.25,12.25,0,0,0,4.25-.65,7.75,7.75,0,0,0,2.88-1.84,9.11,9.11,0,0,0,1.8-2.7l6.26,6.27a18.12,18.12,0,0,1-5.65,5A18.68,18.68,0,0,1,385.88,312.21Z"/><path class="cls-1" d="M418.07,311.49h-10.3V276.21h10.3Zm0-18.65-.29-3.67a24.63,24.63,0,0,1,1.08-4.86,16.82,16.82,0,0,1,2.2-4.43,10.57,10.57,0,0,1,3.49-3.2,9.64,9.64,0,0,1,4.9-1.19,7.58,7.58,0,0,1,6,2.34,9.59,9.59,0,0,1,2.05,6.51,16.72,16.72,0,0,1-.69,5,13.76,13.76,0,0,1-1.33,3.2h-9.93a9,9,0,0,0,1.76-2.66,7.72,7.72,0,0,0,.76-3.17,4.22,4.22,0,0,0-.72-2.52,2.81,2.81,0,0,0-2.45-1,5.44,5.44,0,0,0-3.31,1.19,8.34,8.34,0,0,0-2.56,3.35A12.33,12.33,0,0,0,418.07,292.84Z"/><path class="cls-1" d="M453.35,312.28a12.78,12.78,0,0,1-7.45-2.16,13.69,13.69,0,0,1-4.83-6.3,26.28,26.28,0,0,1-1.69-10,26.68,26.68,0,0,1,1.65-9.94,13.75,13.75,0,0,1,4.72-6.26,12.1,12.1,0,0,1,7.16-2.16,9.79,9.79,0,0,1,10,6.62,26,26,0,0,1,1.48,6.19l-.29,3.68a12.48,12.48,0,0,0-.79-4.76,5.88,5.88,0,0,0-2.31-2.8,7,7,0,0,0-3.74-.94,6.54,6.54,0,0,0-5.44,2.66q-2.06,2.67-2.05,7.71c0,3.36.69,5.93,2.09,7.7a6.68,6.68,0,0,0,5.54,2.67,7,7,0,0,0,3.67-.9,5.47,5.47,0,0,0,2.27-2.78,12.63,12.63,0,0,0,.76-4.75l.29,3.67a29.08,29.08,0,0,1-1.37,6.16,10.5,10.5,0,0,1-3.32,4.79A9.86,9.86,0,0,1,453.35,312.28Zm21.09-.79H464.15V263.25h10.29Z"/><path class="cls-1" d="M491.94,272h-10.3v-8.78h10.3Zm0,39.46h-10.3V276.21h10.3Z"/><path class="cls-1" d="M512.67,325.6q-8.13,0-12.34-2.12c-2.81-1.42-4.22-3.18-4.22-5.3a4.05,4.05,0,0,1,1.08-2.88,7.58,7.58,0,0,1,2.85-1.83,14.46,14.46,0,0,1,3.85-.9,9.08,9.08,0,0,1-3.71-1.77,4.33,4.33,0,0,1-1.55-3.56,6.36,6.36,0,0,1,1.08-3.53,13.62,13.62,0,0,1,2.74-3,16.67,16.67,0,0,1,3.46-2.23l1.22.43a12.61,12.61,0,0,0-1,1.65,4.37,4.37,0,0,0-.47,1.95,2.44,2.44,0,0,0,.76,1.91,4.51,4.51,0,0,0,2.91.68h12.39q5.89,0,8.64,2.27a7.57,7.57,0,0,1,2.73,6.15,9.69,9.69,0,0,1-2.16,6.09,14.32,14.32,0,0,1-6.69,4.39A35,35,0,0,1,512.67,325.6Zm2.09-24.34a18.79,18.79,0,0,1-8.06-1.62,12.71,12.71,0,0,1-5.4-4.57,12.54,12.54,0,0,1,0-13.43,12.84,12.84,0,0,1,5.4-4.53,18.79,18.79,0,0,1,8.06-1.62,19.07,19.07,0,0,1,8.1,1.62,12.89,12.89,0,0,1,5.44,4.53,12.59,12.59,0,0,1,0,13.43,12.77,12.77,0,0,1-5.44,4.57A19.07,19.07,0,0,1,514.76,301.26Zm-1.22,17.14a25.06,25.06,0,0,0,8-1q2.7-1,2.7-2.7a1.65,1.65,0,0,0-1-1.62,7.27,7.27,0,0,0-3.06-.47h-14.9a3.72,3.72,0,0,0-.65.9,2.52,2.52,0,0,0-.29,1.19q0,1.72,2.13,2.7T513.54,318.4Zm1.22-24a6,6,0,0,0,4.14-1.51,6.74,6.74,0,0,0,0-8.93,6.43,6.43,0,0,0-8.28,0,6.74,6.74,0,0,0,0,8.93A6,6,0,0,0,514.76,294.35Zm16.56-23.47-7.2,7.56L520.45,277l1.73-9.22Z"/><path class="cls-1" d="M547.24,311.49h-10.3V276.21h10.3Zm0-18.65-.29-3.67a24.63,24.63,0,0,1,1.08-4.86,16.8,16.8,0,0,1,2.19-4.43,10.67,10.67,0,0,1,3.49-3.2,9.69,9.69,0,0,1,4.9-1.19,7.57,7.57,0,0,1,6,2.34,9.53,9.53,0,0,1,2,6.51,16.73,16.73,0,0,1-.68,5,14.21,14.21,0,0,1-1.33,3.2h-9.94a9.2,9.2,0,0,0,1.77-2.66,7.7,7.7,0,0,0,.75-3.17,4.22,4.22,0,0,0-.72-2.52,2.8,2.8,0,0,0-2.45-1,5.47,5.47,0,0,0-3.31,1.19,8.32,8.32,0,0,0-2.55,3.35A12.33,12.33,0,0,0,547.24,292.84Z"/><path class="cls-1" d="M581.22,272h-10.3v-8.78h10.3Zm0,39.46h-10.3V276.21h10.3Z"/><path class="cls-1" d="M604.18,312.21a29.85,29.85,0,0,1-7.41-.9,22.54,22.54,0,0,1-6.19-2.52,15,15,0,0,1-4.25-3.71l4.75-7a26.79,26.79,0,0,0,3.64,3,19.66,19.66,0,0,0,4.6,2.38,15.05,15.05,0,0,0,5.15.9,6.68,6.68,0,0,0,3.28-.68,2.24,2.24,0,0,0,1.19-2.06,2.26,2.26,0,0,0-1.48-2.08,23.54,23.54,0,0,0-4.28-1.44l-4.76-1.16a31.75,31.75,0,0,1-5.65-2.08,10.27,10.27,0,0,1-3.89-3.21,8.6,8.6,0,0,1-1.4-5.07,9.54,9.54,0,0,1,3.89-8.14q3.89-2.88,10.37-2.88a21.11,21.11,0,0,1,9.75,2.05,18.11,18.11,0,0,1,5.87,4.36l-4.61,6.91a19.13,19.13,0,0,0-5.69-4.1,14.53,14.53,0,0,0-6.19-1.44,5.44,5.44,0,0,0-3,.68,2.21,2.21,0,0,0-1.08,2,2.42,2.42,0,0,0,1.33,2.16,21.57,21.57,0,0,0,4.86,1.73l4,1.08q5.84,1.57,8.5,4a8.39,8.39,0,0,1,2.66,6.48,9.42,9.42,0,0,1-1.8,5.8,11.29,11.29,0,0,1-4.89,3.67A19.26,19.26,0,0,1,604.18,312.21Z"/><path class="cls-2" d="M348.23,613.74a24.62,24.62,0,0,1-9.83-1.9,23.17,23.17,0,0,1-7.67-5.3,23.56,23.56,0,0,1-5-7.92,27.46,27.46,0,0,1,0-19.4,23.69,23.69,0,0,1,5-7.88,23.31,23.31,0,0,1,7.67-5.3,26.46,26.46,0,0,1,19.69,0,22.81,22.81,0,0,1,7.67,5.3,24.09,24.09,0,0,1,5,7.88,27.61,27.61,0,0,1,0,19.4,24,24,0,0,1-5,7.92,22.66,22.66,0,0,1-7.67,5.3A24.84,24.84,0,0,1,348.23,613.74Zm0-10a13.61,13.61,0,0,0,7.45-1.91,11.63,11.63,0,0,0,4.46-5.29,20.51,20.51,0,0,0,0-15.3,11.6,11.6,0,0,0-4.46-5.26,13.61,13.61,0,0,0-7.45-1.91,13.45,13.45,0,0,0-7.38,1.91,11.87,11.87,0,0,0-4.5,5.26,20.13,20.13,0,0,0,0,15.3,11.9,11.9,0,0,0,4.5,5.29A13.45,13.45,0,0,0,348.23,603.74Z"/><path class="cls-2" d="M389.48,613.82a11.77,11.77,0,0,1-5.79-1.34,9.13,9.13,0,0,1-3.75-3.88,13.18,13.18,0,0,1-1.33-6.16V577.82h10.3v21A9.38,9.38,0,0,0,390.1,604q1.18,1.88,4.71,1.87a6.89,6.89,0,0,0,3.85-.93,5,5,0,0,0,2-2.81,16.23,16.23,0,0,0,.58-4.75l.36,3.67a20.06,20.06,0,0,1-1.69,6.16,12.13,12.13,0,0,1-3.86,4.78A10.69,10.69,0,0,1,389.48,613.82Zm22-.72h-10.3V577.82h10.3Z"/><path class="cls-2" d="M440.53,585.66H415.19v-7.84h25.34Zm-8.64,28.16a13,13,0,0,1-6.44-1.44,8.91,8.91,0,0,1-3.78-4,13,13,0,0,1-1.23-5.76v-29l10.3-5.4v32.54a3.92,3.92,0,0,0,1,3,3.64,3.64,0,0,0,2.49.86,4.8,4.8,0,0,0,3.05-1.11,8.23,8.23,0,0,0,2.2-2.63l2.95,8.42a13.23,13.23,0,0,1-3.81,2.95A13.42,13.42,0,0,1,431.89,613.82Z"/><path class="cls-2" d="M461.41,613.82a19.29,19.29,0,0,1-9.68-2.31A15.39,15.39,0,0,1,445.5,605a22.39,22.39,0,0,1,0-19.19,15.86,15.86,0,0,1,6.05-6.44,17.36,17.36,0,0,1,9-2.3,18,18,0,0,1,9.36,2.23,14.17,14.17,0,0,1,5.61,6,18.82,18.82,0,0,1,1.88,8.42c0,.77,0,1.57-.11,2.41a16.53,16.53,0,0,1-.25,1.91H450.68v-5.9h19.16l-1.66,1.36q0-4.17-1.87-6.37T460.62,585a7.37,7.37,0,0,0-5.65,2.19c-1.37,1.47-2.05,3.66-2.05,6.59v2.66a10.54,10.54,0,0,0,1.08,5.08,6.87,6.87,0,0,0,3.06,3,10,10,0,0,0,4.5,1,12.17,12.17,0,0,0,4.24-.64,7.72,7.72,0,0,0,2.88-1.84,8.74,8.74,0,0,0,1.8-2.7l6.27,6.26a17.88,17.88,0,0,1-5.65,5A18.61,18.61,0,0,1,461.41,613.82Z"/><path class="cls-2" d="M493.6,613.1H483.3V577.82h10.3Zm0-18.65-.29-3.67a24.63,24.63,0,0,1,1.08-4.86,16.8,16.8,0,0,1,2.19-4.43,10.81,10.81,0,0,1,3.49-3.21,9.79,9.79,0,0,1,4.9-1.18,7.55,7.55,0,0,1,6,2.34,9.53,9.53,0,0,1,2,6.51,16.77,16.77,0,0,1-.68,5,14.21,14.21,0,0,1-1.33,3.2h-9.94a9.2,9.2,0,0,0,1.77-2.66,7.7,7.7,0,0,0,.75-3.17,4.22,4.22,0,0,0-.72-2.52,2.79,2.79,0,0,0-2.44-1,5.47,5.47,0,0,0-3.32,1.19,8.32,8.32,0,0,0-2.55,3.35A12.33,12.33,0,0,0,493.6,594.45Z"/><path class="cls-2" d="M552.2,613.82a36.73,36.73,0,0,1-8.85-1.05,25.47,25.47,0,0,1-7.74-3.27,19.31,19.31,0,0,1-5.8-5.76l6.84-7.92a14.74,14.74,0,0,0,4.28,4.93,19.07,19.07,0,0,0,5.73,2.84,20.37,20.37,0,0,0,6,.94,13.43,13.43,0,0,0,3.71-.47,5.43,5.43,0,0,0,2.56-1.48,3.75,3.75,0,0,0,.93-2.66,4.23,4.23,0,0,0-1-3,7.91,7.91,0,0,0-3.17-1.87,39.85,39.85,0,0,0-5.36-1.4l-4.68-1a40.48,40.48,0,0,1-5.4-1.51,17.1,17.1,0,0,1-4.68-2.56,11.29,11.29,0,0,1-3.28-4,13.24,13.24,0,0,1-1.19-5.87,12.86,12.86,0,0,1,2.42-8A14.7,14.7,0,0,1,540,565.9a24.33,24.33,0,0,1,9-1.62A28.46,28.46,0,0,1,561,566.73a20.29,20.29,0,0,1,8.32,6.77l-7,7.84a16.13,16.13,0,0,0-6.26-5.76,17.34,17.34,0,0,0-8.06-2,9.44,9.44,0,0,0-3.32.54,5.1,5.1,0,0,0-2.23,1.51,3.58,3.58,0,0,0-.79,2.34,4.13,4.13,0,0,0,2.2,3.89,23,23,0,0,0,5.93,2.09l5.48,1.29a39.35,39.35,0,0,1,6.15,1.95,18.71,18.71,0,0,1,4.79,2.8,11.17,11.17,0,0,1,3.1,4,13.43,13.43,0,0,1,1.08,5.61,12.55,12.55,0,0,1-2.38,7.78,14.53,14.53,0,0,1-6.48,4.79A25.37,25.37,0,0,1,552.2,613.82Z"/><path class="cls-2" d="M586.62,626.49h-10.3V577.82h10.3Zm10.8-12.67a9.87,9.87,0,0,1-6.41-1.88,10.32,10.32,0,0,1-3.31-4.78,28.61,28.61,0,0,1-1.37-6.16l.29-3.67a12.89,12.89,0,0,0,.75,4.75,5.68,5.68,0,0,0,2.27,2.81,6.88,6.88,0,0,0,3.67.93,6.63,6.63,0,0,0,5.58-2.7q2.05-2.7,2.06-7.66,0-5.12-2.06-7.74a6.67,6.67,0,0,0-5.58-2.63,7.06,7.06,0,0,0-3.67.9,5.49,5.49,0,0,0-2.27,2.77,12.89,12.89,0,0,0-.75,4.75l-.29-3.67a25.09,25.09,0,0,1,1.48-6.19,9.79,9.79,0,0,1,10-6.63,12.08,12.08,0,0,1,7.16,2.16,13.72,13.72,0,0,1,4.72,6.27,26.84,26.84,0,0,1,1.66,10,26.08,26.08,0,0,1-1.7,9.9,13.61,13.61,0,0,1-4.82,6.3A12.8,12.8,0,0,1,597.42,613.82Z"/><path class="cls-2" d="M649.26,613.1h-6a9.62,9.62,0,0,1-3.53-.65,5.86,5.86,0,0,1-2.7-2.13,6.74,6.74,0,0,1-1-4V594.16l.28-1.44a9.73,9.73,0,0,0-1.08-5q-1.08-1.8-4.68-1.8a12.22,12.22,0,0,0-6.26,1.69,15,15,0,0,0-4.75,4.36l-5.19-7.49a21.56,21.56,0,0,1,4.25-3.6,24.06,24.06,0,0,1,5.73-2.7,22.43,22.43,0,0,1,6.94-1q6.71,0,10.41,3.49t3.71,10.11v12.1a2.26,2.26,0,0,0,.46,1.62,1.93,1.93,0,0,0,1.41.47h2.09Zm-24.77.79a10,10,0,0,1-6.7-2.2,8,8,0,0,1-2.59-6.44,8.67,8.67,0,0,1,2.56-6.52,20.28,20.28,0,0,1,7.52-4.21L637,590.13l.93,6.12-9.5,4a9.23,9.23,0,0,0-2.92,1.69,2.55,2.55,0,0,0-.83,1.84,2.25,2.25,0,0,0,.9,1.9,4.4,4.4,0,0,0,2.7.69,10.51,10.51,0,0,0,3.24-.47,6.8,6.8,0,0,0,2.42-1.33,5.63,5.63,0,0,0,1.47-2.09,7.41,7.41,0,0,0,.51-2.88l.21,3.46a19.75,19.75,0,0,1-1.76,4.86,12,12,0,0,1-3.67,4.24A10.28,10.28,0,0,1,624.49,613.89Z"/><path class="cls-2" d="M670.06,613.82a18.06,18.06,0,0,1-9.36-2.34,16,16,0,0,1-6.15-6.52,21.7,21.7,0,0,1,0-19,16.13,16.13,0,0,1,6.15-6.48,18.06,18.06,0,0,1,9.36-2.34,17.64,17.64,0,0,1,10.59,3.06,15.63,15.63,0,0,1,5.83,7.59l-8.57,5a9.77,9.77,0,0,0-2.37-5.15,6.71,6.71,0,0,0-5.12-1.91,6.9,6.9,0,0,0-6.62,4.4,13.69,13.69,0,0,0-.94,5.4,13.91,13.91,0,0,0,.94,5.43,6.88,6.88,0,0,0,2.66,3.28,7.35,7.35,0,0,0,4,1.08,6.77,6.77,0,0,0,5.12-1.87,9.65,9.65,0,0,0,2.37-5.19l8.57,5a15.65,15.65,0,0,1-5.83,7.6A17.64,17.64,0,0,1,670.06,613.82Z"/><path class="cls-2" d="M706.93,613.82a19.3,19.3,0,0,1-9.69-2.31A15.39,15.39,0,0,1,691,605a22.39,22.39,0,0,1,0-19.19,15.86,15.86,0,0,1,6-6.44,17.39,17.39,0,0,1,9-2.3,18,18,0,0,1,9.36,2.23,14.19,14.19,0,0,1,5.62,6,18.81,18.81,0,0,1,1.87,8.42c0,.77,0,1.57-.11,2.41a14.56,14.56,0,0,1-.25,1.91H696.2v-5.9h19.15l-1.65,1.36q0-4.17-1.88-6.37c-1.25-1.46-3.14-2.19-5.69-2.19a7.37,7.37,0,0,0-5.65,2.19c-1.36,1.47-2.05,3.66-2.05,6.59v2.66a10.54,10.54,0,0,0,1.08,5.08,6.87,6.87,0,0,0,3.06,3,10.05,10.05,0,0,0,4.5,1,12.23,12.23,0,0,0,4.25-.64A7.88,7.88,0,0,0,714.2,603a8.74,8.74,0,0,0,1.8-2.7l6.26,6.26a17.77,17.77,0,0,1-5.65,5A18.57,18.57,0,0,1,706.93,613.82Z"/><path class="cls-4" d="M332.75,895.11H321.8l18.08-48.24h13.24l18.08,48.24H359.89l-10.65-29.8-2.88-10.23-2.88,10.23Zm26.49-10.72H331.88v-8.72h27.36Z"/><path class="cls-4" d="M384.16,895.11h-10.3V859.83h10.3Zm22.61,0h-10.3v-21a9.91,9.91,0,0,0-1.12-5.11q-1.11-1.87-4.71-1.87a6.87,6.87,0,0,0-3.85.93,5.18,5.18,0,0,0-2,2.81,15.49,15.49,0,0,0-.61,4.75l-.29-3.67a20.94,20.94,0,0,1,1.66-6.19,11.33,11.33,0,0,1,3.85-4.79,11,11,0,0,1,6.59-1.84,10.57,10.57,0,0,1,7.92,3c1.91,2,2.88,4.77,2.88,8.42Z"/><path class="cls-4" d="M435.57,867.68H410.22v-7.85h25.35Zm-8.64,28.15a13,13,0,0,1-6.45-1.44,9,9,0,0,1-3.78-4,13,13,0,0,1-1.22-5.76v-29l10.29-5.4V882.8a4,4,0,0,0,1,3,3.64,3.64,0,0,0,2.49.86,4.8,4.8,0,0,0,3.06-1.12,8.2,8.2,0,0,0,2.2-2.62l2.95,8.42a13.53,13.53,0,0,1-10.51,4.46Z"/><path class="cls-4" d="M452.34,855.66H442v-8.79h10.3Zm0,39.45H442V859.83h10.3Z"/><path class="cls-4" d="M477.61,880.43H458.17V872h19.44Z"/><path class="cls-4" d="M501.23,867.68H480.92v-7.85h20.31Zm-5.11,27.43h-10.3V857.82a14.73,14.73,0,0,1,1.22-6.23,9,9,0,0,1,3.53-4,10.43,10.43,0,0,1,5.55-1.41,10,10,0,0,1,5.65,1.48,9.68,9.68,0,0,1,3.38,4,15.33,15.33,0,0,1,1.41,5.51l-.29,3.45a9.17,9.17,0,0,0-.83-4.32,4.75,4.75,0,0,0-2.16-2.12,6.71,6.71,0,0,0-2.84-.61,3.89,3.89,0,0,0-3.24,1.33,6.66,6.66,0,0,0-1.08,4.21v36.07Zm20.44,0H506.27V846.87h10.29Z"/><path class="cls-4" d="M556.16,895.11h-6a9.62,9.62,0,0,1-3.53-.64,5.83,5.83,0,0,1-2.7-2.13,6.74,6.74,0,0,1-1-4V876.18l.29-1.44a9.83,9.83,0,0,0-1.08-5q-1.08-1.8-4.68-1.8a12.1,12.1,0,0,0-6.26,1.69,14.94,14.94,0,0,0-4.75,4.36l-5.19-7.49a21,21,0,0,1,4.25-3.6,23.41,23.41,0,0,1,5.72-2.7,22.2,22.2,0,0,1,7-1q6.69,0,10.4,3.5c2.48,2.32,3.71,5.7,3.71,10.11v12.1a2.26,2.26,0,0,0,.47,1.62,1.91,1.91,0,0,0,1.4.47h2.09Zm-24.76.8a10,10,0,0,1-6.7-2.2,8,8,0,0,1-2.59-6.44,8.7,8.7,0,0,1,2.55-6.52,20.19,20.19,0,0,1,7.53-4.21l11.73-4.39.94,6.12-9.5,4a9.11,9.11,0,0,0-2.92,1.69,2.54,2.54,0,0,0-.83,1.83,2.25,2.25,0,0,0,.9,1.91,4.4,4.4,0,0,0,2.7.69,10.51,10.51,0,0,0,3.24-.47,6.75,6.75,0,0,0,2.41-1.33,5.74,5.74,0,0,0,1.48-2.09,7.68,7.68,0,0,0,.5-2.88l.22,3.45a19.91,19.91,0,0,1-1.77,4.86,11.8,11.8,0,0,1-3.67,4.25A10.25,10.25,0,0,1,531.4,895.91Z"/><path class="cls-4" d="M575.53,895.83a30,30,0,0,1-7.42-.9,22.67,22.67,0,0,1-6.19-2.52,15.22,15.22,0,0,1-4.25-3.7l4.76-7a26,26,0,0,0,3.63,3,20.12,20.12,0,0,0,4.61,2.38,15,15,0,0,0,5.15.9,6.52,6.52,0,0,0,3.27-.69,2.2,2.2,0,0,0,1.19-2,2.26,2.26,0,0,0-1.47-2.09,24,24,0,0,0-4.29-1.44l-4.75-1.15a31.46,31.46,0,0,1-5.65-2.09,10.08,10.08,0,0,1-3.89-3.2,8.54,8.54,0,0,1-1.4-5.08,9.52,9.52,0,0,1,3.88-8.13q3.9-2.88,10.37-2.88a21.18,21.18,0,0,1,9.76,2,18.36,18.36,0,0,1,5.87,4.35l-4.61,6.92a19.29,19.29,0,0,0-5.69-4.11,14.56,14.56,0,0,0-6.19-1.44,5.43,5.43,0,0,0-3,.69,2.19,2.19,0,0,0-1.08,2,2.42,2.42,0,0,0,1.33,2.16,21.68,21.68,0,0,0,4.86,1.72l4,1.08q5.83,1.59,8.49,4a8.37,8.37,0,0,1,2.67,6.48,9.42,9.42,0,0,1-1.8,5.79,11.18,11.18,0,0,1-4.9,3.67A19.21,19.21,0,0,1,575.53,895.83Z"/><path class="cls-4" d="M605.05,895.11h-10.3V846.87h10.3Zm22.61,0h-10.3v-21a9.91,9.91,0,0,0-1.12-5.11q-1.11-1.87-4.71-1.87a6.89,6.89,0,0,0-3.85.93,5.18,5.18,0,0,0-2,2.81,15.49,15.49,0,0,0-.61,4.75l-.29-3.67a20.94,20.94,0,0,1,1.66-6.19,11.4,11.4,0,0,1,3.85-4.79,11,11,0,0,1,6.59-1.84,10.55,10.55,0,0,1,7.92,3c1.92,2,2.88,4.77,2.88,8.42Z"/><path class="cls-4" d="M671.07,895.11H657.18l-11.6-48.24h11.88l5.12,26.36,1.8,14.61,2.52-13.46,6.26-27.51h13.61L693,874.38l2.45,13.46,1.87-14.61,5.18-26.36h11.81l-11.66,48.24h-13.9l-6.19-25.27-2.59-15.62-2.59,15.62Z"/><path class="cls-4" d="M728.89,895.11h-10.3V846.87h10.3Zm22.61,0H741.2v-21a9.91,9.91,0,0,0-1.12-5.11q-1.11-1.87-4.71-1.87a6.89,6.89,0,0,0-3.85.93,5.18,5.18,0,0,0-2,2.81,15.49,15.49,0,0,0-.61,4.75l-.29-3.67a20.94,20.94,0,0,1,1.66-6.19,11.33,11.33,0,0,1,3.85-4.79,11,11,0,0,1,6.59-1.84,10.55,10.55,0,0,1,7.92,3c1.91,2,2.88,4.77,2.88,8.42Z"/><path class="cls-4" d="M768.85,855.66h-10.3v-8.79h10.3Zm0,39.45h-10.3V859.83h10.3Z"/><path class="cls-4" d="M798.73,867.68H773.38v-7.85h25.35Zm-8.64,28.15a13,13,0,0,1-6.45-1.44,9,9,0,0,1-3.78-4,13.1,13.1,0,0,1-1.22-5.76v-29l10.3-5.4V882.8a3.92,3.92,0,0,0,1,3,3.62,3.62,0,0,0,2.48.86,4.78,4.78,0,0,0,3.06-1.12,8.2,8.2,0,0,0,2.2-2.62l3,8.42a13.53,13.53,0,0,1-10.51,4.46Z"/><path class="cls-4" d="M819.61,895.83a19.3,19.3,0,0,1-9.69-2.3,15.48,15.48,0,0,1-6.22-6.48,22.3,22.3,0,0,1,0-19.19,15.84,15.84,0,0,1,6-6.44,17.3,17.3,0,0,1,9-2.31,18,18,0,0,1,9.36,2.24,14.16,14.16,0,0,1,5.62,6,18.89,18.89,0,0,1,1.87,8.43c0,.77,0,1.57-.11,2.41a14.56,14.56,0,0,1-.25,1.91H808.88v-5.91H828l-1.65,1.37c0-2.78-.63-4.91-1.88-6.37a7.07,7.07,0,0,0-5.68-2.2,7.38,7.38,0,0,0-5.66,2.2c-1.36,1.46-2,3.66-2,6.59v2.66a10.54,10.54,0,0,0,1.08,5.08,6.87,6.87,0,0,0,3.06,3,10.05,10.05,0,0,0,4.5,1,12,12,0,0,0,4.25-.65,7.73,7.73,0,0,0,2.88-1.83,8.74,8.74,0,0,0,1.8-2.7l6.26,6.26a17.89,17.89,0,0,1-5.65,5A18.57,18.57,0,0,1,819.61,895.83Z"/><path d="M327.52,336.31h-4v-2.87h4.33l.91-7.4h-4.24v-2.87h4.57l1.18-9.16H333l-1.16,9.16h6.63l1.19-9.16h2.65l-1.16,9.16h4V326h-4.35l-.91,7.4h4.26v2.87h-4.61l-1.23,10.2h-2.68l1.22-10.2h-6.62L329,346.51h-2.69Zm9.66-2.87.92-7.4h-6.63l-.91,7.4Z"/><path d="M361.82,325.14c0-1.68.14-4.44.24-6.11h-.2c-.8,1.52-1.7,2.91-2.6,4.5l-7.45,10.9h18.25v3.27H347.5V335l13.65-20.37h4.57v31.89h-3.9Z"/><path d="M386.67,325.14c0-1.68.14-4.44.24-6.11h-.2c-.8,1.52-1.7,2.91-2.6,4.5l-7.45,10.9h18.25v3.27H372.35V335L386,314.62h4.57v31.89h-3.9Z"/><path d="M407.56,313.69h4.71l11.1,32.82H419l-5.72-18.33c-1.18-3.67-2.23-7.27-3.29-11.06h-.2c-1,3.81-2.07,7.39-3.25,11.06l-5.78,18.33h-4.25Zm-5.26,19.49h15.11v3.33H402.3Z"/><path d="M427.26,343.09h7.3V319.61h-5.81V317a19.29,19.29,0,0,0,6.79-2.34h3.14v28.47h6.58v3.42h-18Z"/><path d="M459.41,313.69h4.71l11.1,32.82H470.8l-5.72-18.33c-1.18-3.67-2.24-7.27-3.29-11.06h-.2c-1,3.81-2.07,7.39-3.25,11.06l-5.78,18.33h-4.25Zm-5.27,19.49h15.11v3.33H454.14Z"/><path d="M477.38,330.45c0-10.7,3.85-16.43,10.22-16.43s10.22,5.75,10.22,16.43S494,347.11,487.6,347.11,477.38,341.14,477.38,330.45Zm16.45,0c0-9.35-2.52-13.12-6.23-13.12s-6.23,3.77-6.23,13.12,2.53,13.35,6.23,13.35S493.83,339.79,493.83,330.45Z"/><path d="M327.52,639h-4V636.1h4.33l.91-7.39h-4.24v-2.87h4.57l1.18-9.17H333l-1.16,9.17h6.63l1.19-9.17h2.65l-1.16,9.17h4v2.87h-4.35l-.91,7.39h4.26V639h-4.61l-1.23,10.2h-2.68l1.22-10.2h-6.62L329,649.18h-2.69Zm9.66-2.88.92-7.39h-6.63l-.91,7.39Z"/><path d="M361.82,627.8c0-1.67.14-4.43.24-6.11h-.2c-.8,1.53-1.7,2.92-2.6,4.5l-7.45,10.9h18.25v3.28H347.5v-2.71l13.65-20.37h4.57v31.89h-3.9Z"/><path d="M376,616.36h9.74c6.68,0,11.29,2.27,11.29,8a7.17,7.17,0,0,1-4.79,7.12v.2c3.92.78,6.67,3.37,6.67,7.86,0,6.44-5.1,9.6-12.42,9.6H376Zm9,14c5.58,0,7.89-2.05,7.89-5.38,0-3.84-2.63-5.27-7.7-5.27h-5.05v10.65Zm.85,15.54c5.61,0,8.92-2,8.92-6.44,0-4-3.18-5.89-8.92-5.89h-5.71v12.33Z"/><path d="M402.1,645.4l2-2.68a10.86,10.86,0,0,0,8.05,3.63c3.88,0,7-2.81,7-7.26s-2.68-7-6.76-7a8.91,8.91,0,0,0-5.48,1.95l-2.18-1.39,1-15.35h16v3.53H409.39l-.84,9.47a9.59,9.59,0,0,1,4.9-1.32c5.43,0,9.88,3.1,9.88,10a10.44,10.44,0,0,1-10.74,10.82A14,14,0,0,1,402.1,645.4Z"/><path d="M427,645.28l2.07-2.69a10.88,10.88,0,0,0,8.14,3.76c3.88,0,6.63-2.26,6.63-5.84,0-3.79-2.61-6.33-10.18-6.33V631c6.75,0,9.05-2.6,9.05-5.94,0-3.1-2.13-5-5.51-5a9.6,9.6,0,0,0-6.8,3.23l-2.22-2.61a13.22,13.22,0,0,1,9.16-4c5.55,0,9.55,2.94,9.55,8.09,0,3.84-2.34,6.3-5.8,7.58v.2c3.85.91,6.92,3.73,6.92,8.11,0,5.68-4.69,9.11-10.53,9.11A13.48,13.48,0,0,1,427,645.28Z"/><path d="M451.8,645.4l2-2.68a10.86,10.86,0,0,0,8.05,3.63c3.88,0,7-2.81,7-7.26s-2.68-7-6.76-7a8.91,8.91,0,0,0-5.48,1.95l-2.18-1.39,1.05-15.35h16v3.53H459.09l-.84,9.47a9.58,9.58,0,0,1,4.89-1.32c5.44,0,9.89,3.1,9.89,10a10.44,10.44,0,0,1-10.74,10.82A14,14,0,0,1,451.8,645.4Z"/><path d="M477.46,641c0-4.14,3-7,6-8.57v-.2c-2.37-1.65-4.45-4-4.45-7.38,0-4.9,3.9-8.17,9-8.17,5.59,0,9,3.52,9,8.48,0,3.34-2.43,6.21-4.4,7.69v.2c2.85,1.69,5.54,3.93,5.54,8.2,0,4.78-4.11,8.52-10.27,8.52S477.46,646.09,477.46,641Zm16.82.14c0-4.14-4-5.61-8.64-7.46-2.56,1.67-4.46,4-4.46,7,0,3.51,2.93,6.07,6.84,6.07C491.75,646.72,494.28,644.43,494.28,641.15Zm-.76-15.76a5.31,5.31,0,0,0-5.54-5.65,4.94,4.94,0,0,0-5.18,5.12c0,3.81,3.54,5.42,7.36,6.93C492.32,629.86,493.52,627.74,493.52,625.39Z"/><path d="M327.52,924.32h-4v-2.87h4.33l.91-7.39h-4.24v-2.87h4.57l1.18-9.17H333l-1.16,9.17h6.63l1.19-9.17h2.65l-1.16,9.17h4v2.87h-4.35l-.91,7.39h4.26v2.87h-4.61l-1.23,10.21h-2.68l1.22-10.21h-6.62L329,934.53h-2.69Zm9.66-2.87.92-7.39h-6.63l-.91,7.39Z"/><path d="M351.11,901.71H370v3.53H355.29v10.28h12.43v3.54H355.29V931h15.24v3.54H351.11Z"/><path d="M377.46,901.71h18.93v3.53H381.64v11.07h12.51v3.53H381.64v14.69h-4.18Z"/><path d="M402.16,901.71h18.92v3.53H406.34v10.28h12.43v3.54H406.34V931h15.24v3.54H402.16Z"/><path d="M428.51,901.71h18.93v3.53H432.69v11.07H445.2v3.53H432.69v14.69h-4.18Z"/><path d="M453.21,901.71h18.92v3.53H457.39v10.28h12.43v3.54H457.39V931h15.24v3.54H453.21Z"/><path d="M479.56,901.71h18.93v3.53H483.74v11.07h12.5v3.53h-12.5v14.69h-4.18Z"/><path d="M113.13,1632.67a22.81,22.81,0,0,1-12.86-3.45,22.25,22.25,0,0,1-8-9.3,32.54,32.54,0,0,1,0-26.14,22.32,22.32,0,0,1,8-9.26,22.81,22.81,0,0,1,12.86-3.45,24.18,24.18,0,0,1,10,2,20.34,20.34,0,0,1,7.39,5.59,25.81,25.81,0,0,1,4.68,8.81l-5.85,3.82a21.25,21.25,0,0,0-2.81-7.35,13.88,13.88,0,0,0-5.29-4.91,16.88,16.88,0,0,0-8-1.76,16.22,16.22,0,0,0-9.45,2.55,15.47,15.47,0,0,0-5.51,6.94,28.86,28.86,0,0,0,0,20.28,15.42,15.42,0,0,0,5.51,7,16.22,16.22,0,0,0,9.45,2.55,16.88,16.88,0,0,0,8-1.76,13.83,13.83,0,0,0,5.29-5,21.72,21.72,0,0,0,2.81-7.32l5.85,3.83a26.38,26.38,0,0,1-4.68,8.77,20.22,20.22,0,0,1-7.39,5.63A24.18,24.18,0,0,1,113.13,1632.67Z"/><path d="M174.26,1632.07h-4.2a7.91,7.91,0,0,1-3.34-.68,4.9,4.9,0,0,1-2.29-2.17,8.43,8.43,0,0,1-.82-4v-15.08l-.23-1a9.75,9.75,0,0,0-1.68-5.81q-1.69-2.37-6.27-2.37a10.34,10.34,0,0,0-6.48,2,13.51,13.51,0,0,0-4,5l-4.5-4.58a18.49,18.49,0,0,1,3.34-3.78,17.91,17.91,0,0,1,5.29-3.19,18.82,18.82,0,0,1,7.12-1.28q6.6,0,10.16,3.68t3.57,10.27v14.85a1.83,1.83,0,0,0,2.1,2.18h2.25Zm-23.33.75a9.73,9.73,0,0,1-7-2.4,8.47,8.47,0,0,1,0-12,22.8,22.8,0,0,1,6.38-4.2l14.32-6.45.9,4.42L153,1618.12a13.49,13.49,0,0,0-3.75,2.4,4,4,0,0,0-1.2,2.92,3.59,3.59,0,0,0,1.27,2.93,5.93,5.93,0,0,0,3.83,1.05,12.11,12.11,0,0,0,4.23-.71,10.08,10.08,0,0,0,3.31-2,9.67,9.67,0,0,0,2.17-2.93,8.44,8.44,0,0,0,.79-3.67l.22,3.52a15.83,15.83,0,0,1-2,5.07,13,13,0,0,1-4.2,4.35A12.14,12.14,0,0,1,150.93,1632.82Z"/><path d="M188.36,1632.07h-6.53v-50.25h6.53Zm11.77.9a10.94,10.94,0,0,1-6.82-2,12.42,12.42,0,0,1-3.87-5,20.44,20.44,0,0,1-1.61-6.38l.53-3.07a15.64,15.64,0,0,0,.9,5.44,8.07,8.07,0,0,0,3,3.9,9.57,9.57,0,0,0,5.55,1.46,9.93,9.93,0,0,0,7.5-3.26q3.08-3.27,3.07-10.17t-3.07-10.2a10,10,0,0,0-7.5-3.22,9.57,9.57,0,0,0-5.55,1.46,8.07,8.07,0,0,0-3,3.9,15.64,15.64,0,0,0-.9,5.44l-.53-3a20.76,20.76,0,0,1,1.61-6.41,12,12,0,0,1,3.87-5,10.94,10.94,0,0,1,6.75-1.92,13.45,13.45,0,0,1,7.95,2.33,15.15,15.15,0,0,1,5.13,6.56,28.07,28.07,0,0,1,0,20,15.32,15.32,0,0,1-5.17,6.64A13.27,13.27,0,0,1,200.13,1633Z"/><path d="M229.38,1589.84h-6.52v-8h6.52Zm0,42.23h-6.52v-36.23h6.52Z"/><path d="M245.73,1632.07H239.2v-36.23h6.53Zm24.07,0h-6.6v-23.48a9.5,9.5,0,0,0-1.65-5.77q-1.65-2.25-6.37-2.25a9.57,9.57,0,0,0-5.55,1.46,8,8,0,0,0-3,3.94,15.93,15.93,0,0,0-.9,5.47l-.53-3A18.29,18.29,0,0,1,247,1602a12.83,12.83,0,0,1,4.24-5,11.82,11.82,0,0,1,6.94-1.92,11.64,11.64,0,0,1,8.48,3.08q3.13,3.07,3.14,8.85Z"/><path d="M294.7,1632.82a17.57,17.57,0,0,1-9-2.29,15.68,15.68,0,0,1-6.15-6.56,24,24,0,0,1,0-20.06,15.72,15.72,0,0,1,6-6.53,17,17,0,0,1,8.81-2.29,17.59,17.59,0,0,1,8.81,2.1,14,14,0,0,1,5.7,6,20.32,20.32,0,0,1,2,9.3c0,.55,0,1.09-.08,1.62s-.1,1-.15,1.31H282.25v-4.73h24.38l-1.58,2.25q0-6.15-2.85-9.3a10.17,10.17,0,0,0-7.95-3.15,9.71,9.71,0,0,0-7.72,3.27q-2.85,3.26-2.85,9.78v.83a17.23,17.23,0,0,0,1.31,7.05,9.72,9.72,0,0,0,3.83,4.46,11,11,0,0,0,5.88,1.54,13.81,13.81,0,0,0,6-1.13,9.87,9.87,0,0,0,3.6-2.77,15,15,0,0,0,1.95-3.23l4.05,4.43a17.81,17.81,0,0,1-5.81,5.7A18,18,0,0,1,294.7,1632.82Z"/><path d="M339,1600.94H314.73v-5.1H339Zm-8.32,32a11,11,0,0,1-5.29-1.23,8.92,8.92,0,0,1-3.56-3.49,10.79,10.79,0,0,1-1.28-5.4v-31.58l6.6-4.87v34.42c0,2.35.48,3.92,1.43,4.69a5.35,5.35,0,0,0,3.52,1.16,5.55,5.55,0,0,0,4.05-1.61,10.63,10.63,0,0,0,2.4-3.34l2.18,6.45a10.61,10.61,0,0,1-3.71,3.34A12.42,12.42,0,0,1,330.63,1632.89Z"/><path d="M382.83,1632.67a18.91,18.91,0,0,1-11.25-3.26,20.11,20.11,0,0,1-6.94-9.08,35.43,35.43,0,0,1-2.36-13.46,31.14,31.14,0,0,1,2.7-13.2,21.4,21.4,0,0,1,7.91-9.23,23,23,0,0,1,12.79-3.37,24.52,24.52,0,0,1,9.48,1.76,20.67,20.67,0,0,1,7.28,5,21.47,21.47,0,0,1,4.61,8.06l-5.85,3.82a18.71,18.71,0,0,0-2.77-6.37,13.87,13.87,0,0,0-5.1-4.5,18.32,18.32,0,0,0-16.92.9,15.2,15.2,0,0,0-5.51,6.94,26.59,26.59,0,0,0-1.8,10.16,27.7,27.7,0,0,0,1.73,10.12,15.13,15.13,0,0,0,5.25,7,15,15,0,0,0,9,2.55,15.83,15.83,0,0,0,8-1.76,12.7,12.7,0,0,0,4.81-5,25.89,25.89,0,0,0,2.58-7.58h1.05l-.3.45a25.46,25.46,0,0,1-2.4,10.09,17.9,17.9,0,0,1-6.15,7.24A17.07,17.07,0,0,1,382.83,1632.67Zm24.45-.6h-4l-2-19.43H385.08v-5.77h22.2Z"/><path d="M423.32,1632.07H416.8v-36.23h6.52Zm0-20.63-.52-3.07a19.48,19.48,0,0,1,1.09-4.95,14.69,14.69,0,0,1,2.36-4.28,11.55,11.55,0,0,1,3.6-3,10,10,0,0,1,4.8-1.12,8,8,0,0,1,5.29,2,7.17,7.17,0,0,1,2.36,5.81,13.88,13.88,0,0,1-.49,4,7.67,7.67,0,0,1-.93,2.25h-7.06a6.1,6.1,0,0,0,1.5-2.32,7.85,7.85,0,0,0,.61-3,4.31,4.31,0,0,0-.87-2.66,3.33,3.33,0,0,0-2.88-1.17,7.07,7.07,0,0,0-4.36,1.62,10.81,10.81,0,0,0-3.29,4.23A13.55,13.55,0,0,0,423.32,1611.44Z"/><path d="M462,1632.82a17.06,17.06,0,0,1-9-2.33,16.13,16.13,0,0,1-6.07-6.56,23.71,23.71,0,0,1,0-20,16.27,16.27,0,0,1,6.07-6.52,17.06,17.06,0,0,1,9-2.33,16.73,16.73,0,0,1,8.85,2.33,16.11,16.11,0,0,1,6,6.52,24.1,24.1,0,0,1,0,20,16,16,0,0,1-6,6.56A16.73,16.73,0,0,1,462,1632.82Zm-.08-5.48a10.19,10.19,0,0,0,5.51-1.46,9.76,9.76,0,0,0,3.72-4.42,21.73,21.73,0,0,0,0-15.08,9.76,9.76,0,0,0-3.72-4.42,10.86,10.86,0,0,0-10.91,0,9.45,9.45,0,0,0-3.71,4.42,22.35,22.35,0,0,0,0,15.08,9.45,9.45,0,0,0,3.71,4.42A10.12,10.12,0,0,0,462,1627.34Z"/><path d="M507.18,1600.94H483v-5.1h24.23Zm-8.33,32a11,11,0,0,1-5.29-1.23,8.92,8.92,0,0,1-3.56-3.49,10.78,10.78,0,0,1-1.27-5.4v-31.58l6.6-4.87v34.42c0,2.35.47,3.92,1.42,4.69a5.38,5.38,0,0,0,3.53,1.16,5.55,5.55,0,0,0,4.05-1.61,10.63,10.63,0,0,0,2.4-3.34l2.17,6.45a10.61,10.61,0,0,1-3.71,3.34A12.42,12.42,0,0,1,498.85,1632.89Z"/><path d="M528.25,1632.82a17.63,17.63,0,0,1-9-2.29,15.8,15.8,0,0,1-6.15-6.56,24,24,0,0,1,0-20.06,15.76,15.76,0,0,1,6-6.53,17.05,17.05,0,0,1,8.82-2.29,17.62,17.62,0,0,1,8.81,2.1,14.12,14.12,0,0,1,5.7,6,20.32,20.32,0,0,1,2,9.3c0,.55,0,1.09-.08,1.62s-.1,1-.15,1.31H515.8v-4.73h24.38l-1.58,2.25q0-6.15-2.85-9.3a10.17,10.17,0,0,0-8-3.15,9.71,9.71,0,0,0-7.72,3.27q-2.85,3.26-2.85,9.78v.83a17.07,17.07,0,0,0,1.31,7.05,9.7,9.7,0,0,0,3.82,4.46,11,11,0,0,0,5.89,1.54,13.81,13.81,0,0,0,6-1.13,9.87,9.87,0,0,0,3.6-2.77,15,15,0,0,0,1.95-3.23l4.05,4.43a17.23,17.23,0,0,1-15.6,8.1Z"/><path d="M566.13,1632.82a23,23,0,0,1-7.2-1.13,16.9,16.9,0,0,1-6-3.33,13.87,13.87,0,0,1-3.78-5.59l4.72-3.68a11.48,11.48,0,0,0,6.3,7,14.83,14.83,0,0,0,6.15,1.16,9.53,9.53,0,0,0,5.18-1.24,4,4,0,0,0,2-3.64,3.56,3.56,0,0,0-2.22-3.45,26.93,26.93,0,0,0-5.43-1.8L561.1,1616a26.69,26.69,0,0,1-5.06-1.76,11.3,11.3,0,0,1-4.16-3.23,8.44,8.44,0,0,1-1.65-5.44,9.21,9.21,0,0,1,3.6-7.68,14.75,14.75,0,0,1,9.37-2.82,16.88,16.88,0,0,1,9.71,2.63,14.39,14.39,0,0,1,5.37,6.07l-4.95,3.75a10.61,10.61,0,0,0-10.43-7,8.23,8.23,0,0,0-4.65,1.2,4.32,4.32,0,0,0,0,7,18.32,18.32,0,0,0,5.51,2.1l4.73,1.12c4.09,1,6.91,2.29,8.43,4a9.18,9.18,0,0,1,2.29,6.33,9.43,9.43,0,0,1-1.8,5.89,10.25,10.25,0,0,1-4.76,3.45A18.81,18.81,0,0,1,566.13,1632.82Z"/><path d="M593.43,1632.07H586.9v-50.25h6.53v25.57l-.23,5,5.33-5.33,11.92-11.25h8.18l-18,16.88-.68.37-6.52,6.3Zm25.42,0h-7.8l-13-19.8,4.57-4Z"/><path d="M661.82,1632.07H655.3l-18.75-50.25h7.2l11.25,31.5,3.75,13,3.75-13,11.25-31.5h6.9Z"/><path d="M714.55,1632.07h-4.2a7.91,7.91,0,0,1-3.34-.68,5,5,0,0,1-2.29-2.17,8.43,8.43,0,0,1-.82-4v-15.08l-.23-1a9.75,9.75,0,0,0-1.68-5.81q-1.69-2.37-6.27-2.37a10.34,10.34,0,0,0-6.48,2,13.51,13.51,0,0,0-4,5l-4.5-4.58a18.8,18.8,0,0,1,3.34-3.78,17.91,17.91,0,0,1,5.29-3.19,18.82,18.82,0,0,1,7.12-1.28q6.6,0,10.17,3.68T710.2,1609v14.85a1.83,1.83,0,0,0,2.1,2.18h2.25Zm-23.33.75a9.74,9.74,0,0,1-7-2.4,8.47,8.47,0,0,1,0-12,22.8,22.8,0,0,1,6.38-4.2l14.32-6.45.9,4.42-12.52,5.93a13.49,13.49,0,0,0-3.75,2.4,4,4,0,0,0-1.2,2.92,3.59,3.59,0,0,0,1.27,2.93,5.93,5.93,0,0,0,3.83,1.05,12.21,12.21,0,0,0,4.24-.71,10.14,10.14,0,0,0,3.3-2,9.51,9.51,0,0,0,2.17-2.93,8.3,8.3,0,0,0,.79-3.67l.22,3.52a15.83,15.83,0,0,1-2,5.07,13,13,0,0,1-4.2,4.35A12.14,12.14,0,0,1,691.22,1632.82Z"/><path d="M728.65,1632.07h-6.53v-36.23h6.53Zm0-20.63-.53-3.07a19.92,19.92,0,0,1,1.09-4.95,14.69,14.69,0,0,1,2.36-4.28,11.55,11.55,0,0,1,3.6-3A10,10,0,0,1,740,1595a8,8,0,0,1,5.29,2,7.14,7.14,0,0,1,2.36,5.81,14.28,14.28,0,0,1-.48,4,7.9,7.9,0,0,1-.94,2.25h-7.05a6.22,6.22,0,0,0,1.5-2.32,8,8,0,0,0,.6-3,4.36,4.36,0,0,0-.86-2.66,3.36,3.36,0,0,0-2.89-1.17,7,7,0,0,0-4.35,1.62,10.93,10.93,0,0,0-3.3,4.23A13.55,13.55,0,0,0,728.65,1611.44Z"/><path d="M760.22,1589.84H753.7v-8h6.52Zm0,42.23H753.7v-36.23h6.52Z"/><path d="M800.8,1632.07h-4.2a7.88,7.88,0,0,1-3.34-.68,4.9,4.9,0,0,1-2.29-2.17,8.43,8.43,0,0,1-.82-4v-15.08l-.23-1a9.69,9.69,0,0,0-1.69-5.81q-1.68-2.37-6.26-2.37a10.39,10.39,0,0,0-6.49,2,13.58,13.58,0,0,0-4,5l-4.5-4.58a18.49,18.49,0,0,1,3.34-3.78,17.78,17.78,0,0,1,5.29-3.19,18.82,18.82,0,0,1,7.12-1.28q6.6,0,10.16,3.68t3.57,10.27v14.85a1.83,1.83,0,0,0,2.1,2.18h2.25Zm-23.33.75a9.73,9.73,0,0,1-7-2.4,8.47,8.47,0,0,1,0-12,22.8,22.8,0,0,1,6.38-4.2l14.32-6.45.9,4.42-12.52,5.93a13.49,13.49,0,0,0-3.75,2.4,4,4,0,0,0-1.2,2.92,3.59,3.59,0,0,0,1.27,2.93,5.93,5.93,0,0,0,3.83,1.05,12.11,12.11,0,0,0,4.23-.71,9.94,9.94,0,0,0,3.3-2,9.54,9.54,0,0,0,2.18-2.93,8.44,8.44,0,0,0,.79-3.67l.22,3.52a15.83,15.83,0,0,1-2,5.07,13,13,0,0,1-4.2,4.35A12.14,12.14,0,0,1,777.47,1632.82Z"/><path d="M814.9,1632.07h-6.53v-50.25h6.53Zm11.77.9a10.92,10.92,0,0,1-6.82-2,12.42,12.42,0,0,1-3.87-5,20.44,20.44,0,0,1-1.61-6.38l.53-3.07a15.64,15.64,0,0,0,.9,5.44,8.07,8.07,0,0,0,3,3.9,9.57,9.57,0,0,0,5.55,1.46,10,10,0,0,0,7.5-3.26q3.07-3.27,3.07-10.17t-3.07-10.2a10,10,0,0,0-7.5-3.22,9.57,9.57,0,0,0-5.55,1.46,8.07,8.07,0,0,0-3,3.9,15.64,15.64,0,0,0-.9,5.44l-.53-3A20.76,20.76,0,0,1,816,1602a12,12,0,0,1,3.87-5,10.9,10.9,0,0,1,6.75-1.92,13.47,13.47,0,0,1,7.95,2.33,15.22,15.22,0,0,1,5.13,6.56,28.07,28.07,0,0,1,0,20,15.32,15.32,0,0,1-5.17,6.64A13.27,13.27,0,0,1,826.67,1633Z"/><path d="M855.92,1632.07H849.4v-50.25h6.52Z"/><path d="M881.19,1632.82a17.57,17.57,0,0,1-9-2.29A15.68,15.68,0,0,1,866,1624a24,24,0,0,1,0-20.06,15.72,15.72,0,0,1,6-6.53,17,17,0,0,1,8.81-2.29,17.59,17.59,0,0,1,8.81,2.1,14,14,0,0,1,5.7,6,20.19,20.19,0,0,1,2,9.3c0,.55,0,1.09-.08,1.62s-.1,1-.15,1.31H868.74v-4.73h24.38l-1.58,2.25q0-6.15-2.85-9.3a10.17,10.17,0,0,0-8-3.15,9.71,9.71,0,0,0-7.72,3.27q-2.85,3.26-2.85,9.78v.83a17.23,17.23,0,0,0,1.31,7.05,9.72,9.72,0,0,0,3.83,4.46,11,11,0,0,0,5.88,1.54,13.81,13.81,0,0,0,6-1.13,9.87,9.87,0,0,0,3.6-2.77,15,15,0,0,0,2-3.23l4,4.43a17.81,17.81,0,0,1-5.81,5.7A18,18,0,0,1,881.19,1632.82Z"/><path d="M93.11,1706.74h-6.9l20.25-50.25H113l20.25,50.25H126l-14-35.7-2.47-7.88-2.48,7.88Zm30.07-14H95.88v-5.77h27.3Z"/><path d="M144,1706.74h-6.6v-50.25H144Zm14.32,0H141v-5.85h16.2q6.08,0,8.89-2t2.81-6.45a7.69,7.69,0,0,0-1.5-5,8.58,8.58,0,0,0-4.05-2.74,18.38,18.38,0,0,0-5.85-.86H141v-5.77h15.75a16,16,0,0,0,5.14-.75,7,7,0,0,0,3.48-2.48,7.78,7.78,0,0,0,1.28-4.72,7.67,7.67,0,0,0-1.31-4.77,6.94,6.94,0,0,0-3.64-2.36,18.84,18.84,0,0,0-5.25-.67H141v-5.85h17.7a18,18,0,0,1,8.1,1.61,11.36,11.36,0,0,1,4.91,4.5,13,13,0,0,1,1.69,6.71,11.43,11.43,0,0,1-.68,3.9,9.07,9.07,0,0,1-2.13,3.34,13.11,13.11,0,0,1-3.72,2.51,17.8,17.8,0,0,1-5.47,1.43,21.27,21.27,0,0,1,8.4,2.32,10.82,10.82,0,0,1,4.5,4.5,13.08,13.08,0,0,1,1.35,5.93,12.13,12.13,0,0,1-8,11.92A24.68,24.68,0,0,1,158.28,1706.74Z"/><path d="M206.28,1707.34a22.81,22.81,0,0,1-12.86-3.45,22.25,22.25,0,0,1-7.95-9.3,32.54,32.54,0,0,1,0-26.14,22.26,22.26,0,0,1,7.95-9.26,22.81,22.81,0,0,1,12.86-3.45,24.18,24.18,0,0,1,10,2,20.42,20.42,0,0,1,7.39,5.58,26,26,0,0,1,4.68,8.82l-5.85,3.82a21.25,21.25,0,0,0-2.81-7.35,13.8,13.8,0,0,0-5.29-4.91,16.76,16.76,0,0,0-8-1.76,16.22,16.22,0,0,0-9.45,2.55,15.49,15.49,0,0,0-5.51,6.93,28.89,28.89,0,0,0,0,20.29,15.47,15.47,0,0,0,5.51,7,16.22,16.22,0,0,0,9.45,2.55,16.76,16.76,0,0,0,8-1.77,13.68,13.68,0,0,0,5.29-5,21.59,21.59,0,0,0,2.81-7.31l5.85,3.83a26.38,26.38,0,0,1-4.68,8.77,20.22,20.22,0,0,1-7.39,5.63A24.18,24.18,0,0,1,206.28,1707.34Z"/><path d="M267.41,1706.74h-4.2a7.91,7.91,0,0,1-3.34-.68,5,5,0,0,1-2.29-2.17,8.43,8.43,0,0,1-.82-4.05v-15.08l-.23-1a9.81,9.81,0,0,0-1.68-5.82q-1.69-2.35-6.27-2.36a10.28,10.28,0,0,0-6.48,2,13.43,13.43,0,0,0-4,5l-4.5-4.58a18.79,18.79,0,0,1,3.34-3.79,18.11,18.11,0,0,1,5.29-3.18,18.82,18.82,0,0,1,7.12-1.28q6.6,0,10.16,3.68t3.57,10.27v14.85a2.25,2.25,0,0,0,.52,1.69,2.28,2.28,0,0,0,1.58.49h2.25Zm-23.33.75a9.73,9.73,0,0,1-7-2.4,8.47,8.47,0,0,1,0-12,22.8,22.8,0,0,1,6.38-4.2l14.32-6.45.9,4.42-12.52,5.93a13.49,13.49,0,0,0-3.75,2.4,4,4,0,0,0-1.2,2.92,3.59,3.59,0,0,0,1.27,2.93,5.93,5.93,0,0,0,3.83,1,11.88,11.88,0,0,0,4.23-.72,9.9,9.9,0,0,0,3.31-2,9.51,9.51,0,0,0,2.17-2.93,8.47,8.47,0,0,0,.79-3.67l.22,3.52a15.7,15.7,0,0,1-2,5.06,12.81,12.81,0,0,1-4.2,4.35A12.06,12.06,0,0,1,244.08,1707.49Z"/><path d="M281.51,1706.74H275v-50.25h6.53Zm11.77.9a10.94,10.94,0,0,1-6.82-2,12.42,12.42,0,0,1-3.87-5,20.44,20.44,0,0,1-1.61-6.38l.53-3.07a15.54,15.54,0,0,0,.9,5.43,8,8,0,0,0,3,3.9,9.49,9.49,0,0,0,5.55,1.47,9.91,9.91,0,0,0,7.5-3.27q3.07-3.25,3.07-10.16t-3.07-10.2a10,10,0,0,0-7.5-3.22,9.49,9.49,0,0,0-5.55,1.46,8,8,0,0,0-3,3.9,15.6,15.6,0,0,0-.9,5.44l-.53-3a20.89,20.89,0,0,1,1.61-6.42,12.15,12.15,0,0,1,3.87-4.95,11,11,0,0,1,6.75-1.91,13.45,13.45,0,0,1,8,2.33,15.09,15.09,0,0,1,5.13,6.56,28.07,28.07,0,0,1,0,20,15.23,15.23,0,0,1-5.17,6.63A13.2,13.2,0,0,1,293.28,1707.64Z"/><path d="M331.61,1707.49a17.45,17.45,0,0,1-9-2.29,15.2,15.2,0,0,1-6-6.56,25,25,0,0,1,0-20.07,15.2,15.2,0,0,1,6-6.52,17.35,17.35,0,0,1,9-2.29q7.13,0,11.32,3.64a16.77,16.77,0,0,1,5.48,9l-6.45,2.62a12.44,12.44,0,0,0-2.89-7.12c-1.63-1.85-4.06-2.78-7.31-2.78a10,10,0,0,0-5.63,1.58,9.88,9.88,0,0,0-3.67,4.61,21.2,21.2,0,0,0,0,14.51,10.13,10.13,0,0,0,3.67,4.61,9.83,9.83,0,0,0,5.63,1.62c3.25,0,5.68-.94,7.31-2.82a12.62,12.62,0,0,0,2.89-7.16l6.45,2.7a16.81,16.81,0,0,1-5.48,9Q338.73,1707.48,331.61,1707.49Z"/><path d="M93.64,1422.07H39.34v-12.7h54.3Zm-20,54.3H59.34v-67h14.3Z"/><path d="M114.34,1421.57H100v-12.2h14.3Zm0,54.8H100v-49h14.3Z"/><path d="M138.74,1495h-14.3v-67.6h14.3Zm15-17.6c-3.8,0-6.76-.86-8.9-2.6a14.45,14.45,0,0,1-4.6-6.65,39.41,39.41,0,0,1-1.9-8.55l.4-5.1a17.75,17.75,0,0,0,1,6.6,7.83,7.83,0,0,0,3.15,3.9,9.48,9.48,0,0,0,5.1,1.3,9.21,9.21,0,0,0,7.75-3.75q2.85-3.75,2.85-10.65,0-7.09-2.85-10.75a9.31,9.31,0,0,0-7.75-3.65,9.83,9.83,0,0,0-5.1,1.25,7.66,7.66,0,0,0-3.15,3.85,17.83,17.83,0,0,0-1,6.6l-.4-5.1a35.29,35.29,0,0,1,2-8.6,14.72,14.72,0,0,1,4.9-6.65c2.24-1.7,5.25-2.55,9.05-2.55a16.8,16.8,0,0,1,9.95,3,19,19,0,0,1,6.55,8.7,37.3,37.3,0,0,1,2.3,13.9,36.18,36.18,0,0,1-2.35,13.75,18.92,18.92,0,0,1-6.7,8.75A17.78,17.78,0,0,1,153.74,1477.37Z"/><path d="M203.74,1477.37a25.13,25.13,0,0,1-13-3.25,21.89,21.89,0,0,1-8.55-9,30.65,30.65,0,0,1,0-26.45,22.07,22.07,0,0,1,8.55-9,25.23,25.23,0,0,1,13-3.25,26.18,26.18,0,0,1,13.25,3.25,22.17,22.17,0,0,1,8.7,9,30.2,30.2,0,0,1,0,26.45,22,22,0,0,1-8.7,9A26.08,26.08,0,0,1,203.74,1477.37Zm.2-11.6a10.1,10.1,0,0,0,5.4-1.4,9.21,9.21,0,0,0,3.6-4.45,25.57,25.57,0,0,0,0-16.1,9.31,9.31,0,0,0-3.6-4.45,10.19,10.19,0,0,0-5.4-1.4,10,10,0,0,0-5.3,1.4,9.31,9.31,0,0,0-3.6,4.45,25.57,25.57,0,0,0,0,16.1,9.21,9.21,0,0,0,3.6,4.45A9.92,9.92,0,0,0,203.94,1465.77Z"/><path d="M254.54,1496q-11.29,0-17.15-3t-5.85-7.35a5.63,5.63,0,0,1,1.5-4,10.72,10.72,0,0,1,4-2.55,20.74,20.74,0,0,1,5.35-1.25,12.39,12.39,0,0,1-5.15-2.45,6,6,0,0,1-2.15-5,8.84,8.84,0,0,1,1.5-4.9,18.94,18.94,0,0,1,3.8-4.2,23.62,23.62,0,0,1,4.8-3.1l1.7.6a18.14,18.14,0,0,0-1.35,2.3,6,6,0,0,0-.65,2.7,3.38,3.38,0,0,0,1,2.65c.7.64,2.05,1,4.05,1h17.2q8.21,0,12,3.15a10.53,10.53,0,0,1,3.8,8.55,13.42,13.42,0,0,1-3,8.45q-3,3.86-9.3,6.1T254.54,1496Zm2.9-33.8a26.13,26.13,0,0,1-11.2-2.25,17.73,17.73,0,0,1-7.5-6.35,17.45,17.45,0,0,1,0-18.65,17.91,17.91,0,0,1,7.5-6.3,26.13,26.13,0,0,1,11.2-2.25,26.45,26.45,0,0,1,11.25,2.25,17.87,17.87,0,0,1,7.55,6.3,17.45,17.45,0,0,1,0,18.65,17.7,17.7,0,0,1-7.55,6.35A26.45,26.45,0,0,1,257.44,1462.17Zm-1.7,23.8q7.39,0,11.15-1.35t3.75-3.75a2.31,2.31,0,0,0-1.35-2.25A10.43,10.43,0,0,0,265,1478h-20.7a5.58,5.58,0,0,0-.9,1.25,3.41,3.41,0,0,0-.4,1.65q0,2.4,3,3.75T255.74,1486Zm1.7-33.4a8.32,8.32,0,0,0,5.75-2.1c1.57-1.4,2.35-3.46,2.35-6.2s-.78-4.8-2.35-6.2a8.92,8.92,0,0,0-11.5,0q-2.35,2.1-2.35,6.2c0,2.74.78,4.8,2.35,6.2A8.32,8.32,0,0,0,257.44,1452.57Zm23-32.6-10,10.5-5.1-2,2.4-12.8Z"/><path d="M302.54,1476.37h-14.3v-49h14.3Zm0-25.9-.4-5.1a35.23,35.23,0,0,1,1.5-6.75,23.55,23.55,0,0,1,3.05-6.15,14.83,14.83,0,0,1,4.85-4.45,13.51,13.51,0,0,1,6.8-1.65c3.67,0,6.45,1.09,8.35,3.25s2.85,5.19,2.85,9.05a23.46,23.46,0,0,1-1,6.95,19,19,0,0,1-1.85,4.45h-13.8a12.47,12.47,0,0,0,2.45-3.7,10.58,10.58,0,0,0,1.05-4.4,5.86,5.86,0,0,0-1-3.5,3.9,3.9,0,0,0-3.4-1.4,7.57,7.57,0,0,0-4.6,1.65,11.58,11.58,0,0,0-3.55,4.65A17.2,17.2,0,0,0,302.54,1450.47Z"/><path d="M380.34,1476.37h-8.4a13.33,13.33,0,0,1-4.9-.9,8.15,8.15,0,0,1-3.75-3,9.39,9.39,0,0,1-1.45-5.55v-16.9l.4-2a13.66,13.66,0,0,0-1.5-7c-1-1.66-3.17-2.5-6.5-2.5a17,17,0,0,0-8.7,2.35,20.93,20.93,0,0,0-6.6,6l-7.2-10.4a29.83,29.83,0,0,1,5.9-5,33.16,33.16,0,0,1,7.95-3.75,31.18,31.18,0,0,1,9.65-1.45q9.3,0,14.45,4.85t5.15,14v16.8a3.13,3.13,0,0,0,.65,2.25,2.61,2.61,0,0,0,1.95.65h2.9Zm-34.4,1.1a13.86,13.86,0,0,1-9.3-3q-3.6-3-3.6-9a12,12,0,0,1,3.55-9q3.56-3.45,10.45-5.85l16.3-6.1,1.3,8.5-13.2,5.5a13.1,13.1,0,0,0-4.05,2.35,3.54,3.54,0,0,0-1.15,2.55,3.14,3.14,0,0,0,1.25,2.65,6.1,6.1,0,0,0,3.75,1,14.3,14.3,0,0,0,4.5-.65,9.27,9.27,0,0,0,3.35-1.85,7.78,7.78,0,0,0,2.05-2.9,10.36,10.36,0,0,0,.7-4l.3,4.8a27.63,27.63,0,0,1-2.45,6.75,16.58,16.58,0,0,1-5.1,5.9A14.25,14.25,0,0,1,345.94,1477.47Z"/><path d="M419.14,1438.27h-36.6v-10.9h36.6Zm-15.5,38.1h-14.3v-51.1a16.42,16.42,0,0,1,2.5-9.4,15.64,15.64,0,0,1,6.9-5.6,25.37,25.37,0,0,1,10.1-1.9,32.15,32.15,0,0,1,7.05.75A39,39,0,0,1,422,1411a31.07,31.07,0,0,1,4.7,2.35l-4.9,10a16.93,16.93,0,0,0-5-2.85,19.15,19.15,0,0,0-7-1.25q-3.4,0-4.8,1.65a6.68,6.68,0,0,0-1.4,4.45v51Zm28.4,0h-14.3v-49H432Z"/><path d="M487.14,1476.37h-8.4a13.29,13.29,0,0,1-4.9-.9,8.05,8.05,0,0,1-3.75-3,9.39,9.39,0,0,1-1.45-5.55v-16.9l.4-2a13.66,13.66,0,0,0-1.5-7c-1-1.66-3.17-2.5-6.5-2.5a16.9,16.9,0,0,0-8.7,2.35,20.93,20.93,0,0,0-6.6,6l-7.2-10.4a29.54,29.54,0,0,1,5.9-5,33.16,33.16,0,0,1,7.95-3.75,31.13,31.13,0,0,1,9.65-1.45q9.3,0,14.45,4.85t5.15,14v16.8a3.09,3.09,0,0,0,.65,2.25,2.61,2.61,0,0,0,1.95.65h2.9Zm-34.4,1.1a13.86,13.86,0,0,1-9.3-3q-3.6-3-3.6-9a12,12,0,0,1,3.55-9q3.54-3.45,10.45-5.85l16.3-6.1,1.3,8.5-13.2,5.5a12.85,12.85,0,0,0-4.05,2.35,3.54,3.54,0,0,0-1.15,2.55,3.11,3.11,0,0,0,1.25,2.65,6.1,6.1,0,0,0,3.75,1,14.38,14.38,0,0,0,4.5-.65,9.27,9.27,0,0,0,3.35-1.85,7.78,7.78,0,0,0,2.05-2.9,10.56,10.56,0,0,0,.7-4l.3,4.8a28.05,28.05,0,0,1-2.45,6.75,16.58,16.58,0,0,1-5.1,5.9A14.27,14.27,0,0,1,452.74,1477.47Z"/><path d="M76.13,90.58q-10.5,0-17.95-4.6a30.62,30.62,0,0,1-11.4-12.4,38,38,0,0,1-4-17.4,37.92,37.92,0,0,1,4-17.45,30.61,30.61,0,0,1,11.4-12.35q7.45-4.61,17.95-4.6a35.32,35.32,0,0,1,13.1,2.3,28.81,28.81,0,0,1,10,6.6,33.42,33.42,0,0,1,6.85,10.2l-12.2,9.8A24,24,0,0,0,90.68,43a16.66,16.66,0,0,0-5.9-5.5A17.56,17.56,0,0,0,76,35.48a17.35,17.35,0,0,0-9.8,2.65,16.31,16.31,0,0,0-6,7.3,27.05,27.05,0,0,0-2,10.75,27.18,27.18,0,0,0,2,10.7,16.29,16.29,0,0,0,6,7.35A17.43,17.43,0,0,0,76,76.88a17.66,17.66,0,0,0,8.75-2,16.66,16.66,0,0,0,5.9-5.5,24,24,0,0,0,3.25-7.65l12.2,9.8a33.55,33.55,0,0,1-6.85,10.2,29,29,0,0,1-10,6.6A35.32,35.32,0,0,1,76.13,90.58Z"/><path d="M134.93,90.78a25.23,25.23,0,0,1-13-3.25,22,22,0,0,1-8.55-9,28.33,28.33,0,0,1-3-13.2,28.22,28.22,0,0,1,3-13.25A21.94,21.94,0,0,1,122,43a25.13,25.13,0,0,1,13-3.25A26.08,26.08,0,0,1,148.18,43a22,22,0,0,1,8.7,9,27.88,27.88,0,0,1,3.05,13.25,28,28,0,0,1-3.05,13.2,22.05,22.05,0,0,1-8.7,9A26.18,26.18,0,0,1,134.93,90.78Zm.2-11.6a10.19,10.19,0,0,0,5.4-1.4,9.26,9.26,0,0,0,3.6-4.45,20.76,20.76,0,0,0,1.3-8,20.73,20.73,0,0,0-1.3-8.05,9.21,9.21,0,0,0-3.6-4.45,10.19,10.19,0,0,0-5.4-1.4,10,10,0,0,0-5.3,1.4,9.21,9.21,0,0,0-3.6,4.45,20.73,20.73,0,0,0-1.3,8.05,20.76,20.76,0,0,0,1.3,8,9.26,9.26,0,0,0,3.6,4.45A10,10,0,0,0,135.13,79.18Z"/><path d="M182.13,89.78h-14.3v-49h14.3Zm0-25.9-.4-5.1a34.9,34.9,0,0,1,1.5-6.75,23.4,23.4,0,0,1,3.05-6.15,14.72,14.72,0,0,1,4.85-4.45,13.51,13.51,0,0,1,6.8-1.65q5.5,0,8.35,3.25t2.85,9a23.5,23.5,0,0,1-.95,7,19.2,19.2,0,0,1-1.85,4.45h-13.8a12.6,12.6,0,0,0,2.45-3.7,10.62,10.62,0,0,0,1.05-4.4,5.84,5.84,0,0,0-1-3.5,3.88,3.88,0,0,0-3.4-1.4,7.57,7.57,0,0,0-4.6,1.65,11.58,11.58,0,0,0-3.55,4.65A17.2,17.2,0,0,0,182.13,63.88Z"/><path d="M237.23,90.78a26.9,26.9,0,0,1-13.45-3.2,21.51,21.51,0,0,1-8.65-9,28.55,28.55,0,0,1-3-13.3,28.44,28.44,0,0,1,3-13.35,22,22,0,0,1,8.4-9,24.09,24.09,0,0,1,12.5-3.2q7.8,0,13,3.1a19.62,19.62,0,0,1,7.8,8.4,26.23,26.23,0,0,1,2.6,11.7c0,1.07-.05,2.18-.15,3.35a22.58,22.58,0,0,1-.35,2.65h-36.6v-8.2h26.6l-2.3,1.9q0-5.8-2.6-8.85c-1.73-2-4.37-3-7.9-3a10.24,10.24,0,0,0-7.85,3q-2.85,3-2.85,9.15v3.7a14.62,14.62,0,0,0,1.5,7,9.57,9.57,0,0,0,4.25,4.1,14,14,0,0,0,6.25,1.35,16.91,16.91,0,0,0,5.9-.9,10.74,10.74,0,0,0,4-2.55,12.25,12.25,0,0,0,2.5-3.75l8.7,8.7a25.09,25.09,0,0,1-7.85,7Q245.54,90.77,237.23,90.78Z"/><path d="M288.43,90.78a41.7,41.7,0,0,1-10.3-1.25,31.47,31.47,0,0,1-8.6-3.5,21,21,0,0,1-5.9-5.15l6.6-9.7a37,37,0,0,0,5,4.15,27.69,27.69,0,0,0,6.4,3.3,20.9,20.9,0,0,0,7.15,1.25,9.2,9.2,0,0,0,4.55-.95A3.08,3.08,0,0,0,295,76.08a3.13,3.13,0,0,0-2-2.9,32.94,32.94,0,0,0-6-2l-6.6-1.6a44,44,0,0,1-7.85-2.9,14.08,14.08,0,0,1-5.4-4.45,11.89,11.89,0,0,1-1.95-7q0-7.3,5.4-11.3t14.4-4a29.41,29.41,0,0,1,13.55,2.85,25.36,25.36,0,0,1,8.15,6.05l-6.4,9.6a26.58,26.58,0,0,0-7.9-5.7,20.29,20.29,0,0,0-8.6-2,7.56,7.56,0,0,0-4.1,1,3.06,3.06,0,0,0-1.5,2.75,3.36,3.36,0,0,0,1.85,3,29.81,29.81,0,0,0,6.75,2.4l5.5,1.5q8.1,2.19,11.8,5.6a11.64,11.64,0,0,1,3.7,9,13.14,13.14,0,0,1-2.5,8.05,15.64,15.64,0,0,1-6.8,5.1A26.82,26.82,0,0,1,288.43,90.78Z"/></svg>