<svg id="Camada_1" data-name="Camada 1" xmlns="http://www.w3.org/2000/svg" viewBox="0 0 1000 1000"><defs><style>.cls-1{fill:#44a1a0;}.cls-2{fill:#4b5358;}</style></defs><title>LogoFinanceiraVIP</title><path class="cls-1" d="M232.63,457.51a71.63,71.63,0,0,1-17-2,49.16,49.16,0,0,1-14.9-6.31,36.93,36.93,0,0,1-11.15-11.08l9.93-10.44c2.13,3.88,7.56,7.24,11.41,9.44a33.9,33.9,0,0,0,11.76,4.2,56,56,0,0,0,9.58.68,22.71,22.71,0,0,0,8.4-2.05,17.88,17.88,0,0,0,5.18-3.6c1.2-1.29,1.52-3.45,1.52-5.58a8.14,8.14,0,0,0-2-5.75,15.29,15.29,0,0,0-6.1-3.6,76.07,76.07,0,0,0-10.32-2.7l-9-1.94a74.94,74.94,0,0,1-10.39-2.91,32.61,32.61,0,0,1-9-4.92,21.87,21.87,0,0,1-6.3-7.76,25.41,25.41,0,0,1-2.29-11.29q0-9.15,4.65-15.31a28.26,28.26,0,0,1,12.53-9.28,46.76,46.76,0,0,1,17.32-3.12,54.71,54.71,0,0,1,23.21,4.71,39,39,0,0,1,16,13L252.16,395a30.89,30.89,0,0,0-12-11.09,33.38,33.38,0,0,0-15.52-3.88,18.14,18.14,0,0,0-6.37,1,10,10,0,0,0-4.3,2.91,7,7,0,0,0-1.52,4.51,8,8,0,0,0,4.23,7.48,44.28,44.28,0,0,0,11.43,4l10.53,2.49a76,76,0,0,1,11.84,3.74,36.65,36.65,0,0,1,9.22,5.4,21.45,21.45,0,0,1,6,7.76,25.87,25.87,0,0,1,2.08,10.81,24.2,24.2,0,0,1-4.57,15,28,28,0,0,1-12.47,9.22A48.71,48.71,0,0,1,232.63,457.51ZM236.37,470h-9.7V349.43h9.7Z"/><path class="cls-2" d="M156.14,618.46H144V525.63h12.19Zm50.16-82H148.1V525.63h58.2Zm-9,43.92H148.1V569.55h49.19Z"/><path class="cls-2" d="M231.65,540.46H219.6V525.63h12.05Zm0,78H219.6V551.54h12.05Z"/><path class="cls-2" d="M261.85,618.46H249.8V551.54h12.05Zm44.48,0H294.14V575.1a17.6,17.6,0,0,0-3.05-10.67q-3-4.15-11.78-4.16-6.37,0-10.25,2.7a14.82,14.82,0,0,0-5.54,7.28,29.37,29.37,0,0,0-1.67,10.11l-1-5.54a33.77,33.77,0,0,1,3.33-11.92,23.83,23.83,0,0,1,7.83-9.21q5.06-3.54,12.81-3.53,9.84,0,15.66,5.68t5.82,16.35Z"/><path class="cls-2" d="M381.15,618.46h-7.76a14.62,14.62,0,0,1-6.17-1.24,9.06,9.06,0,0,1-4.22-4,15.52,15.52,0,0,1-1.53-7.48V577.87l-.41-1.8a18,18,0,0,0-3.12-10.74Q354.82,561,346.37,561a19.07,19.07,0,0,0-12,3.68,24.92,24.92,0,0,0-7.42,9.21l-8.31-8.45a34.68,34.68,0,0,1,6.17-7,33.29,33.29,0,0,1,9.76-5.89,34.86,34.86,0,0,1,13.17-2.35q12.18,0,18.77,6.79t6.58,19v27.43a3.39,3.39,0,0,0,3.88,4h4.16Zm-43.09,1.39q-8.31,0-13-4.43a15.64,15.64,0,0,1-.07-22.17,42.13,42.13,0,0,1,11.78-7.76l26.47-11.92,1.66,8.18L341.8,592.69a25,25,0,0,0-6.93,4.44,7.34,7.34,0,0,0-2.21,5.4,6.6,6.6,0,0,0,2.35,5.4c1.57,1.3,3.93,1.94,7.07,1.94a22.26,22.26,0,0,0,7.83-1.31,18.46,18.46,0,0,0,6.09-3.67,17.48,17.48,0,0,0,4-5.41,15.54,15.54,0,0,0,1.45-6.79l.42,6.52a29.25,29.25,0,0,1-3.6,9.35,23.86,23.86,0,0,1-7.76,8A22.37,22.37,0,0,1,338.06,619.85Z"/><path class="cls-2" d="M407.2,618.46H395.14V551.54H407.2Zm44.47,0H439.48V575.1a17.6,17.6,0,0,0-3.05-10.67q-3-4.15-11.78-4.16-6.37,0-10.25,2.7a14.82,14.82,0,0,0-5.54,7.28,29.37,29.37,0,0,0-1.66,10.11l-1-5.54a33.54,33.54,0,0,1,3.32-11.92,23.83,23.83,0,0,1,7.83-9.21q5.06-3.54,12.82-3.53,9.82,0,15.65,5.68t5.82,16.35Z"/><path class="cls-2" d="M496.84,619.85a32.16,32.16,0,0,1-16.7-4.23,28,28,0,0,1-11-12.12,41.59,41.59,0,0,1-3.88-18.57,41.14,41.14,0,0,1,3.88-18.49,28.2,28.2,0,0,1,11-12.06,32.25,32.25,0,0,1,16.7-4.22q13.16,0,20.92,6.72a31.06,31.06,0,0,1,10.12,16.69L516,578.42a23,23,0,0,0-5.33-13.16q-4.51-5.13-13.51-5.13a17.64,17.64,0,0,0-17.18,11.43,39.25,39.25,0,0,0,0,26.81,18.79,18.79,0,0,0,6.79,8.53,18.19,18.19,0,0,0,10.39,3q9,0,13.51-5.19A23.31,23.31,0,0,0,516,591.45l11.92,5a31.09,31.09,0,0,1-10.12,16.7Q510,619.85,496.84,619.85Z"/><path class="cls-2" d="M569.44,619.85a32.62,32.62,0,0,1-16.7-4.23,29.08,29.08,0,0,1-11.36-12.12,44.37,44.37,0,0,1-.07-37.06,29.09,29.09,0,0,1,11.16-12.06,31.37,31.37,0,0,1,16.28-4.22A32.5,32.5,0,0,1,585,554a26,26,0,0,1,10.53,11.08,37.54,37.54,0,0,1,3.67,17.18c0,1-.05,2-.14,3s-.19,1.78-.28,2.43H546.44V579h45l-2.91,4.15q0-11.36-5.27-17.18t-14.68-5.82q-9,0-14.27,6t-5.27,18.08v1.53a31.59,31.59,0,0,0,2.43,13,18,18,0,0,0,7.06,8.24,20.38,20.38,0,0,0,10.88,2.84,25.59,25.59,0,0,0,11.08-2.07,18.26,18.26,0,0,0,6.65-5.13,27.65,27.65,0,0,0,3.61-6l7.48,8.18a33.2,33.2,0,0,1-10.74,10.53Q580.53,619.85,569.44,619.85Z"/><path class="cls-2" d="M626.8,540.46h-12V525.63h12Zm0,78h-12V551.54h12Z"/><path class="cls-2" d="M657,618.46H645V551.54h12Zm0-38.1-1-5.68a36.52,36.52,0,0,1,2-9.14,27.19,27.19,0,0,1,4.37-7.9,21.13,21.13,0,0,1,6.65-5.54,18.4,18.4,0,0,1,8.86-2.08,14.77,14.77,0,0,1,9.77,3.67q4.37,3.67,4.37,10.74a26.15,26.15,0,0,1-.9,7.34,14.49,14.49,0,0,1-1.74,4.16h-13a11.55,11.55,0,0,0,2.77-4.3,14.76,14.76,0,0,0,1.11-5.54,8.07,8.07,0,0,0-1.59-4.92c-1.07-1.43-2.84-2.14-5.34-2.14a13,13,0,0,0-8,3,20.35,20.35,0,0,0-6.1,7.83A25,25,0,0,0,657,580.36Z"/><path class="cls-2" d="M759.39,618.46h-7.76a14.58,14.58,0,0,1-6.16-1.24,9.13,9.13,0,0,1-4.23-4,15.65,15.65,0,0,1-1.52-7.48V577.87l-.42-1.8a18.05,18.05,0,0,0-3.11-10.74Q733.07,561,724.62,561a19.1,19.1,0,0,0-12,3.68,24.9,24.9,0,0,0-7.41,9.21l-8.31-8.45a34.61,34.61,0,0,1,6.16-7,33.21,33.21,0,0,1,9.77-5.89A34.84,34.84,0,0,1,726,550.16q12.19,0,18.78,6.79t6.58,19v27.43a3.39,3.39,0,0,0,3.88,4h4.15Zm-43.09,1.39q-8.31,0-12.95-4.43a15.64,15.64,0,0,1-.07-22.17,42,42,0,0,1,11.78-7.76l26.46-11.92,1.66,8.18L720,592.69a24.75,24.75,0,0,0-6.92,4.44,7.35,7.35,0,0,0-2.22,5.4,6.58,6.58,0,0,0,2.36,5.4c1.57,1.3,3.92,1.94,7.06,1.94a22.26,22.26,0,0,0,7.83-1.31,18.4,18.4,0,0,0,6.1-3.67,17.45,17.45,0,0,0,4-5.41,15.54,15.54,0,0,0,1.46-6.79l.41,6.52a29,29,0,0,1-3.6,9.35,23.77,23.77,0,0,1-7.76,8A22.35,22.35,0,0,1,716.3,619.85Z"/><path class="cls-1" d="M811.77,618.46H799.71l-34.64-92.83h13.31l20.78,58.2,6.93,24,6.92-24,20.79-58.2h12.74Z"/><path class="cls-1" d="M866.08,618.46H853.89V525.63h12.19Z"/><path class="cls-1" d="M901.41,618.46H889.22V525.63h12.19Zm25.08-31.31H893.23V576.34h31.32a33.54,33.54,0,0,0,10.67-1.66,17,17,0,0,0,8.24-5.89q3.25-4.21,3.26-11.71,0-8.45-3.26-12.88a16.54,16.54,0,0,0-8.24-6.1,33.82,33.82,0,0,0-10.67-1.66H893.23V525.63h33.26A39.34,39.34,0,0,1,943,529a26.85,26.85,0,0,1,11.78,10.32q4.36,6.93,4.37,17.73,0,10-4.37,16.56A28.1,28.1,0,0,1,943,583.69,38.61,38.61,0,0,1,926.49,587.15Z"/><path class="cls-1" d="M232.86,520.5H220.81l-34.64-92.83h13.3l20.79,58.19,6.92,24-.27.13L393.17,345l8.82,8.82Z"/><polyline class="cls-1" points="20.61 592.96 20.33 593.09 186.17 427.67 191.19 441.12 26.29 603.63"/><polygon class="cls-1" points="372.92 326.65 421.03 375.68 424.61 322.8 372.92 326.65"/><path class="cls-1" d="M115.69,473l14.46-14.27c-8.42-31.27-5.28-61.78,14.93-91.16,14.8-19.78,33.69-34.87,59.71-41.8,21.73-5.84,43.38-5.33,64.94,3.17A99.5,99.5,0,0,1,313,358.81c8.51,9.52,14.17,19.76,18.8,30.28L345.87,375c-15.12-28.73-37-50.6-68.23-63.09,0,0-36.41-14.77-76.56-4.06S138.8,346,138.8,346s-26.14,28.39-30.09,65.29S115.69,473,115.69,473Z"/></svg>